ffmpeg started on 2025-06-06 at 18:33:39
Report written to "D:\Convert\FFMetrics\reports\ssim_report-6.txt"
Log level: 32
Command line:
ffmpeg -hide_banner -nostdin -i "G:\\\xc0\xed\xe8\xec\xe5\\\xce\xed\xe3\xee\xe8\xed\xe3\xe8\\!_36_\xce\xf1\xe5\xed\xfc_2024\\DreamCast\\\xcf\xf0\xee\xf9\xe0\xe9, \xe6\xe8\xe7\xed\xfc \xe4\xf0\xe0\xea\xee\xed\xe0. \xc7\xe4\xf0\xe0\xe2\xf1\xf2\xe2\xf3\xe9, \xe6\xe8\xe7\xed\xfc \xf7\xe5\xeb\xee\xe2\xe5\xea\xe0\\[DC] Sayonara Ryuusei Konnichiwa Jinsei - 11_Telegram_HEVC.mkv" -i "G:\\\xc0\xed\xe8\xec\xe5\\\xce\xed\xe3\xee\xe8\xed\xe3\xe8\\!_36_\xce\xf1\xe5\xed\xfc_2024\\DreamCast\\\xcf\xf0\xee\xf9\xe0\xe9, \xe6\xe8\xe7\xed\xfc \xe4\xf0\xe0\xea\xee\xed\xe0. \xc7\xe4\xf0\xe0\xe2\xf1\xf2\xe2\xf3\xe9, \xe6\xe8\xe7\xed\xfc \xf7\xe5\xeb\xee\xe2\xe5\xea\xe0\\[DC] Sayonara Ryuusei Konnichiwa Jinsei - 11_Telegram.mp4" -lavfi "[0:v]settb=AVTB,setpts=PTS-STARTPTS,format=pix_fmts=yuv420p10,fps=24000/1001,scale=1920:1080:flags=bicubic[main];[1:v]settb=AVTB,setpts=PTS-STARTPTS,format=pix_fmts=yuv420p,fps=24000/1001,scale=1920:1080:flags=bicubic[ref];[main][ref]ssim=eof_action=endall:stats_file='D\\:/Convert/FFMetrics/logs/ssim_logfile-6.txt'" -f null -
Input #0, matroska,webm, from 'G:\Аниме\Онгоинги\!_36_Осень_2024\DreamCast\Прощай, жизнь дракона. Здравствуй, жизнь человека\[DC] Sayonara Ryuusei Konnichiwa Jinsei - 11_Telegram_HEVC.mkv':
  Metadata:
    COMPATIBLE_BRANDS: isomiso2avc1mp41
    MAJOR_BRAND     : isom
    MINOR_VERSION   : 512
    ENCODER         : Lavf61.7.100
  Duration: 00:24:16.73, start: -0.021000, bitrate: 1209 kb/s
  Stream #0:0: Video: hevc (Main 10), yuv420p10le(tv, bt709, progressive), 1920x1080 [SAR 1:1 DAR 16:9], 23.98 fps, 23.98 tbr, 1k tbn (default)
      Metadata:
        HANDLER_NAME    : VideoHandler
        VENDOR_ID       : [0][0][0][0]
        ENCODER         : Lavc61.19.100 libx265
        BPS             : 1012021
        DURATION        : 00:24:16.579708333
        NUMBER_OF_FRAMES: 34923
        NUMBER_OF_BYTES : 184261161
        _STATISTICS_WRITING_APP: mkvpropedit v66.0.0 ('Josie') 64-bit
        _STATISTICS_WRITING_DATE_UTC: 2025-06-03 11:14:12
        _STATISTICS_TAGS: BPS DURATION NUMBER_OF_FRAMES NUMBER_OF_BYTES
  Stream #0:1: Audio: aac (LC), 48000 Hz, stereo, fltp (default)
      Metadata:
        HANDLER_NAME    : SoundHandler
        VENDOR_ID       : [0][0][0][0]
        ENCODER         : Lavc61.19.100 aac
        BPS             : 193890
        DURATION        : 00:24:16.725000000
        NUMBER_OF_FRAMES: 68285
        NUMBER_OF_BYTES : 35305666
        _STATISTICS_WRITING_APP: mkvpropedit v66.0.0 ('Josie') 64-bit
        _STATISTICS_WRITING_DATE_UTC: 2025-06-03 11:14:12
        _STATISTICS_TAGS: BPS DURATION NUMBER_OF_FRAMES NUMBER_OF_BYTES
Input #1, mov,mp4,m4a,3gp,3g2,mj2, from 'G:\Аниме\Онгоинги\!_36_Осень_2024\DreamCast\Прощай, жизнь дракона. Здравствуй, жизнь человека\[DC] Sayonara Ryuusei Konnichiwa Jinsei - 11_Telegram.mp4':
  Metadata:
    major_brand     : isom
    minor_version   : 512
    compatible_brands: isomiso2avc1mp41
    encoder         : Lavf61.1.100
  Duration: 00:24:16.70, start: 0.000000, bitrate: 3708 kb/s
  Stream #1:0[0x1](und): Video: h264 (High) (avc1 / 0x31637661), yuv420p(tv, bt709, progressive), 1920x1080 [SAR 1:1 DAR 16:9], 3560 kb/s, 23.98 fps, 23.98 tbr, 24k tbn (default)
      Metadata:
        handler_name    : VideoHandler
        vendor_id       : [0][0][0][0]
        encoder         : Lavc61.3.100 h264_qsv
  Stream #1:1[0x2](und): Audio: aac (HE-AACv2) (mp4a / 0x6134706D), 48000 Hz, stereo, fltp, 144 kb/s (default)
      Metadata:
        handler_name    : SoundHandler
        vendor_id       : [0][0][0][0]
Stream mapping:
  Stream #0:0 (hevc) -> settb:default
  Stream #1:0 (h264) -> settb:default
  ssim:default -> Stream #0:0 (wrapped_avframe)
  Stream #0:1 -> #0:1 (aac (native) -> pcm_s16le (native))
Output #0, null, to 'pipe:':
  Metadata:
    COMPATIBLE_BRANDS: isomiso2avc1mp41
    MAJOR_BRAND     : isom
    MINOR_VERSION   : 512
    encoder         : Lavf61.7.100
  Stream #0:0: Video: wrapped_avframe, yuv420p10le(tv, bt709, progressive), 1920x1080 [SAR 1:1 DAR 16:9], q=2-31, 200 kb/s, 23.98 fps, 23.98 tbn
      Metadata:
        encoder         : Lavc61.19.100 wrapped_avframe
  Stream #0:1: Audio: pcm_s16le, 48000 Hz, stereo, s16, 1536 kb/s (default)
      Metadata:
        HANDLER_NAME    : SoundHandler
        VENDOR_ID       : [0][0][0][0]
        _STATISTICS_TAGS: BPS DURATION NUMBER_OF_FRAMES NUMBER_OF_BYTES
        BPS             : 193890
        DURATION        : 00:24:16.725000000
        NUMBER_OF_FRAMES: 68285
        NUMBER_OF_BYTES : 35305666
        _STATISTICS_WRITING_APP: mkvpropedit v66.0.0 ('Josie') 64-bit
        _STATISTICS_WRITING_DATE_UTC: 2025-06-03 11:14:12
        encoder         : Lavc61.19.100 pcm_s16le
frame=  173 fps=0.0 q=-0.0 size=N/A time=00:00:07.21 bitrate=N/A speed=  14x    frame=  462 fps=450 q=-0.0 size=N/A time=00:00:19.26 bitrate=N/A speed=18.8x    frame=  738 fps=478 q=-0.0 size=N/A time=00:00:30.78 bitrate=N/A speed=19.9x    frame= 1017 fps=494 q=-0.0 size=N/A time=00:00:42.41 bitrate=N/A speed=20.6x    frame= 1272 fps=494 q=-0.0 size=N/A time=00:00:53.05 bitrate=N/A speed=20.6x    frame= 1541 fps=498 q=-0.0 size=N/A time=00:01:04.27 bitrate=N/A speed=20.8x    frame= 1785 fps=496 q=-0.0 size=N/A time=00:01:14.44 bitrate=N/A speed=20.7x    frame= 2032 fps=493 q=-0.0 size=N/A time=00:01:24.75 bitrate=N/A speed=20.6x    frame= 2278 fps=492 q=-0.0 size=N/A time=00:01:35.01 bitrate=N/A speed=20.5x    frame= 2482 fps=482 q=-0.0 size=N/A time=00:01:43.52 bitrate=N/A speed=20.1x    frame= 2685 fps=474 q=-0.0 size=N/A time=00:01:51.98 bitrate=N/A speed=19.8x    frame= 2882 fps=466 q=-0.0 size=N/A time=00:02:00.20 bitrate=N/A speed=19.5x    frame= 3087 fps=461 q=-0.0 size=N/A time=00:02:08.75 bitrate=N/A speed=19.2x    frame= 3280 fps=454 q=-0.0 size=N/A time=00:02:16.80 bitrate=N/A speed=  19x    frame= 3477 fps=450 q=-0.0 size=N/A time=00:02:25.01 bitrate=N/A speed=18.8x    frame= 3692 fps=448 q=-0.0 size=N/A time=00:02:33.98 bitrate=N/A speed=18.7x    frame= 3904 fps=445 q=-0.0 size=N/A time=00:02:42.82 bitrate=N/A speed=18.6x    frame= 4118 fps=444 q=-0.0 size=N/A time=00:02:51.75 bitrate=N/A speed=18.5x    frame= 4312 fps=440 q=-0.0 size=N/A time=00:02:59.84 bitrate=N/A speed=18.4x    frame= 4522 fps=439 q=-0.0 size=N/A time=00:03:08.60 bitrate=N/A speed=18.3x    frame= 4753 fps=439 q=-0.0 size=N/A time=00:03:18.23 bitrate=N/A speed=18.3x    frame= 5007 fps=442 q=-0.0 size=N/A time=00:03:28.83 bitrate=N/A speed=18.4x    frame= 5270 fps=444 q=-0.0 size=N/A time=00:03:39.80 bitrate=N/A speed=18.5x    frame= 5521 fps=446 q=-0.0 size=N/A time=00:03:50.27 bitrate=N/A speed=18.6x    frame= 5768 fps=448 q=-0.0 size=N/A time=00:04:00.57 bitrate=N/A speed=18.7x    frame= 6034 fps=450 q=-0.0 size=N/A time=00:04:11.66 bitrate=N/A speed=18.8x    frame= 6296 fps=453 q=-0.0 size=N/A time=00:04:22.59 bitrate=N/A speed=18.9x    frame= 6553 fps=454 q=-0.0 size=N/A time=00:04:33.31 bitrate=N/A speed=18.9x    frame= 6795 fps=454 q=-0.0 size=N/A time=00:04:43.40 bitrate=N/A speed=  19x    frame= 7012 fps=453 q=-0.0 size=N/A time=00:04:52.45 bitrate=N/A speed=18.9x    frame= 7257 fps=454 q=-0.0 size=N/A time=00:05:02.67 bitrate=N/A speed=18.9x    frame= 7512 fps=455 q=-0.0 size=N/A time=00:05:13.31 bitrate=N/A speed=  19x    frame= 7762 fps=456 q=-0.0 size=N/A time=00:05:23.74 bitrate=N/A speed=  19x    frame= 8019 fps=457 q=-0.0 size=N/A time=00:05:34.45 bitrate=N/A speed=19.1x    frame= 8254 fps=457 q=-0.0 size=N/A time=00:05:44.26 bitrate=N/A speed=19.1x    frame= 8517 fps=459 q=-0.0 size=N/A time=00:05:55.22 bitrate=N/A speed=19.1x    frame= 8773 fps=460 q=-0.0 size=N/A time=00:06:05.90 bitrate=N/A speed=19.2x    frame= 9052 fps=462 q=-0.0 size=N/A time=00:06:17.54 bitrate=N/A speed=19.3x    frame= 9301 fps=463 q=-0.0 size=N/A time=00:06:27.92 bitrate=N/A speed=19.3x    frame= 9576 fps=464 q=-0.0 size=N/A time=00:06:39.39 bitrate=N/A speed=19.4x    frame= 9830 fps=465 q=-0.0 size=N/A time=00:06:49.99 bitrate=N/A speed=19.4x    frame=10041 fps=464 q=-0.0 size=N/A time=00:06:58.79 bitrate=N/A speed=19.3x    frame=10288 fps=464 q=-0.0 size=N/A time=00:07:09.09 bitrate=N/A speed=19.4x    frame=10535 fps=464 q=-0.0 size=N/A time=00:07:19.39 bitrate=N/A speed=19.4x    frame=10789 fps=465 q=-0.0 size=N/A time=00:07:29.99 bitrate=N/A speed=19.4x    frame=11056 fps=466 q=-0.0 size=N/A time=00:07:41.12 bitrate=N/A speed=19.4x    frame=11313 fps=467 q=-0.0 size=N/A time=00:07:51.84 bitrate=N/A speed=19.5x    frame=11574 fps=468 q=-0.0 size=N/A time=00:08:02.73 bitrate=N/A speed=19.5x    frame=11860 fps=469 q=-0.0 size=N/A time=00:08:14.66 bitrate=N/A speed=19.6x    frame=12133 fps=470 q=-0.0 size=N/A time=00:08:26.04 bitrate=N/A speed=19.6x    frame=12423 fps=472 q=-0.0 size=N/A time=00:08:38.14 bitrate=N/A speed=19.7x    frame=12707 fps=474 q=-0.0 size=N/A time=00:08:49.98 bitrate=N/A speed=19.8x    frame=12983 fps=475 q=-0.0 size=N/A time=00:09:01.49 bitrate=N/A speed=19.8x    frame=13212 fps=474 q=-0.0 size=N/A time=00:09:11.05 bitrate=N/A speed=19.8x    frame=13462 fps=474 q=-0.0 size=N/A time=00:09:21.47 bitrate=N/A speed=19.8x    frame=13734 fps=475 q=-0.0 size=N/A time=00:09:32.82 bitrate=N/A speed=19.8x    frame=14021 fps=477 q=-0.0 size=N/A time=00:09:44.79 bitrate=N/A speed=19.9x    frame=14294 fps=478 q=-0.0 size=N/A time=00:09:56.17 bitrate=N/A speed=19.9x    frame=14573 fps=479 q=-0.0 size=N/A time=00:10:07.81 bitrate=N/A speed=  20x    frame=14821 fps=479 q=-0.0 size=N/A time=00:10:18.15 bitrate=N/A speed=  20x    frame=15088 fps=480 q=-0.0 size=N/A time=00:10:29.29 bitrate=N/A speed=  20x    frame=15349 fps=480 q=-0.0 size=N/A time=00:10:40.18 bitrate=N/A speed=  20x    frame=15595 fps=480 q=-0.0 size=N/A time=00:10:50.44 bitrate=N/A speed=  20x    frame=15870 fps=481 q=-0.0 size=N/A time=00:11:01.91 bitrate=N/A speed=  20x    frame=16152 fps=482 q=-0.0 size=N/A time=00:11:13.67 bitrate=N/A speed=20.1x    frame=16422 fps=483 q=-0.0 size=N/A time=00:11:24.93 bitrate=N/A speed=20.1x    frame=16662 fps=482 q=-0.0 size=N/A time=00:11:34.94 bitrate=N/A speed=20.1x    frame=16955 fps=483 q=-0.0 size=N/A time=00:11:47.16 bitrate=N/A speed=20.2x    frame=17248 fps=485 q=-0.0 size=N/A time=00:11:59.38 bitrate=N/A speed=20.2x    frame=17532 fps=486 q=-0.0 size=N/A time=00:12:11.23 bitrate=N/A speed=20.2x    frame=17796 fps=486 q=-0.0 size=N/A time=00:12:22.24 bitrate=N/A speed=20.3x    frame=18090 fps=487 q=-0.0 size=N/A time=00:12:34.50 bitrate=N/A speed=20.3x    frame=18353 fps=487 q=-0.0 size=N/A time=00:12:45.47 bitrate=N/A speed=20.3x    frame=18605 fps=488 q=-0.0 size=N/A time=00:12:55.98 bitrate=N/A speed=20.3x    frame=18889 fps=488 q=-0.0 size=N/A time=00:13:07.82 bitrate=N/A speed=20.4x    frame=19154 fps=489 q=-0.0 size=N/A time=00:13:18.88 bitrate=N/A speed=20.4x    frame=19416 fps=489 q=-0.0 size=N/A time=00:13:29.80 bitrate=N/A speed=20.4x    frame=19694 fps=490 q=-0.0 size=N/A time=00:13:41.40 bitrate=N/A speed=20.4x    frame=19972 fps=490 q=-0.0 size=N/A time=00:13:52.99 bitrate=N/A speed=20.4x    frame=20233 fps=490 q=-0.0 size=N/A time=00:14:03.88 bitrate=N/A speed=20.5x    frame=20474 fps=490 q=-0.0 size=N/A time=00:14:13.93 bitrate=N/A speed=20.4x    frame=20707 fps=490 q=-0.0 size=N/A time=00:14:23.65 bitrate=N/A speed=20.4x    frame=20949 fps=489 q=-0.0 size=N/A time=00:14:33.74 bitrate=N/A speed=20.4x    frame=21202 fps=489 q=-0.0 size=N/A time=00:14:44.30 bitrate=N/A speed=20.4x    frame=21470 fps=490 q=-0.0 size=N/A time=00:14:55.47 bitrate=N/A speed=20.4x    frame=21746 fps=490 q=-0.0 size=N/A time=00:15:06.98 bitrate=N/A speed=20.5x    frame=22020 fps=491 q=-0.0 size=N/A time=00:15:18.41 bitrate=N/A speed=20.5x    frame=22282 fps=491 q=-0.0 size=N/A time=00:15:29.34 bitrate=N/A speed=20.5x    frame=22563 fps=491 q=-0.0 size=N/A time=00:15:41.06 bitrate=N/A speed=20.5x    frame=22842 fps=492 q=-0.0 size=N/A time=00:15:52.70 bitrate=N/A speed=20.5x    frame=23087 fps=492 q=-0.0 size=N/A time=00:16:02.92 bitrate=N/A speed=20.5x    frame=23330 fps=492 q=-0.0 size=N/A time=00:16:13.05 bitrate=N/A speed=20.5x    frame=23606 fps=492 q=-0.0 size=N/A time=00:16:24.56 bitrate=N/A speed=20.5x    frame=23878 fps=492 q=-0.0 size=N/A time=00:16:35.91 bitrate=N/A speed=20.5x    frame=24150 fps=493 q=-0.0 size=N/A time=00:16:47.25 bitrate=N/A speed=20.6x    frame=24425 fps=493 q=-0.0 size=N/A time=00:16:58.72 bitrate=N/A speed=20.6x    frame=24699 fps=494 q=-0.0 size=N/A time=00:17:10.15 bitrate=N/A speed=20.6x    frame=24979 fps=494 q=-0.0 size=N/A time=00:17:21.83 bitrate=N/A speed=20.6x    frame=25231 fps=494 q=-0.0 size=N/A time=00:17:32.34 bitrate=N/A speed=20.6x    frame=25479 fps=494 q=-0.0 size=N/A time=00:17:42.68 bitrate=N/A speed=20.6x    frame=25702 fps=493 q=-0.0 size=N/A time=00:17:51.98 bitrate=N/A speed=20.6x    frame=25917 fps=493 q=-0.0 size=N/A time=00:18:00.95 bitrate=N/A speed=20.5x    frame=26118 fps=492 q=-0.0 size=N/A time=00:18:09.33 bitrate=N/A speed=20.5x    frame=26290 fps=490 q=-0.0 size=N/A time=00:18:16.51 bitrate=N/A speed=20.4x    frame=26516 fps=490 q=-0.0 size=N/A time=00:18:25.93 bitrate=N/A speed=20.4x    frame=26725 fps=489 q=-0.0 size=N/A time=00:18:34.65 bitrate=N/A speed=20.4x    frame=26986 fps=489 q=-0.0 size=N/A time=00:18:45.54 bitrate=N/A speed=20.4x    frame=27231 fps=489 q=-0.0 size=N/A time=00:18:55.75 bitrate=N/A speed=20.4x    frame=27490 fps=489 q=-0.0 size=N/A time=00:19:06.56 bitrate=N/A speed=20.4x    frame=27747 fps=489 q=-0.0 size=N/A time=00:19:17.28 bitrate=N/A speed=20.4x    frame=28029 fps=490 q=-0.0 size=N/A time=00:19:29.04 bitrate=N/A speed=20.4x    frame=28281 fps=490 q=-0.0 size=N/A time=00:19:39.55 bitrate=N/A speed=20.4x    frame=28528 fps=490 q=-0.0 size=N/A time=00:19:49.85 bitrate=N/A speed=20.4x    frame=28718 fps=489 q=-0.0 size=N/A time=00:19:57.77 bitrate=N/A speed=20.4x    frame=28959 fps=488 q=-0.0 size=N/A time=00:20:07.83 bitrate=N/A speed=20.4x    frame=29200 fps=488 q=-0.0 size=N/A time=00:20:17.88 bitrate=N/A speed=20.4x    frame=29479 fps=489 q=-0.0 size=N/A time=00:20:29.51 bitrate=N/A speed=20.4x    frame=29744 fps=489 q=-0.0 size=N/A time=00:20:40.57 bitrate=N/A speed=20.4x    frame=29971 fps=488 q=-0.0 size=N/A time=00:20:50.04 bitrate=N/A speed=20.4x    frame=30224 fps=488 q=-0.0 size=N/A time=00:21:00.59 bitrate=N/A speed=20.4x    frame=30486 fps=489 q=-0.0 size=N/A time=00:21:11.52 bitrate=N/A speed=20.4x    frame=30732 fps=488 q=-0.0 size=N/A time=00:21:21.78 bitrate=N/A speed=20.4x    frame=30990 fps=489 q=-0.0 size=N/A time=00:21:32.54 bitrate=N/A speed=20.4x    frame=31275 fps=489 q=-0.0 size=N/A time=00:21:44.42 bitrate=N/A speed=20.4x    frame=31533 fps=489 q=-0.0 size=N/A time=00:21:55.18 bitrate=N/A speed=20.4x    frame=31788 fps=489 q=-0.0 size=N/A time=00:22:05.82 bitrate=N/A speed=20.4x    frame=32033 fps=489 q=-0.0 size=N/A time=00:22:16.04 bitrate=N/A speed=20.4x    frame=32288 fps=489 q=-0.0 size=N/A time=00:22:26.67 bitrate=N/A speed=20.4x    frame=32567 fps=490 q=-0.0 size=N/A time=00:22:38.31 bitrate=N/A speed=20.4x    frame=32827 fps=490 q=-0.0 size=N/A time=00:22:49.15 bitrate=N/A speed=20.4x    frame=33078 fps=490 q=-0.0 size=N/A time=00:22:59.62 bitrate=N/A speed=20.4x    frame=33298 fps=489 q=-0.0 size=N/A time=00:23:08.80 bitrate=N/A speed=20.4x    frame=33528 fps=489 q=-0.0 size=N/A time=00:23:18.39 bitrate=N/A speed=20.4x    frame=33736 fps=488 q=-0.0 size=N/A time=00:23:27.07 bitrate=N/A speed=20.4x    frame=33980 fps=488 q=-0.0 size=N/A time=00:23:37.24 bitrate=N/A speed=20.4x    frame=34124 fps=487 q=-0.0 size=N/A time=00:23:43.25 bitrate=N/A speed=20.3x    frame=34284 fps=485 q=-0.0 size=N/A time=00:23:49.92 bitrate=N/A speed=20.2x    frame=34489 fps=485 q=-0.0 size=N/A time=00:23:58.47 bitrate=N/A speed=20.2x    frame=34712 fps=484 q=-0.0 size=N/A time=00:24:07.77 bitrate=N/A speed=20.2x    [Parsed_ssim_10 @ 00000294f75fbc80] SSIM Y:0.993846 (22.108387) U:0.992845 (21.453778) V:0.993094 (21.607722) All:0.993554 (21.906935)
[out#0/null @ 00000294f6d35b80] video:15006KiB audio:273140KiB subtitle:0KiB other streams:0KiB global headers:0KiB muxing overhead: unknown
frame=34923 fps=484 q=-0.0 Lsize=N/A time=00:24:16.58 bitrate=N/A speed=20.2x    
